<svg width="126" height="14" viewBox="0 0 126 14" fill="none" xmlns="http://www.w3.org/2000/svg">
<path d="M0.028 11L4.508 1.2H5.53L10.01 11H8.918L4.802 1.802H5.222L1.106 11H0.028ZM1.792 8.382L2.1 7.542H7.798L8.106 8.382H1.792ZM11.1213 11V3.65H12.0733V5.652L11.9753 5.302C12.1806 4.742 12.526 4.31733 13.0113 4.028C13.4966 3.72933 14.0986 3.58 14.8173 3.58V4.546C14.78 4.546 14.7426 4.546 14.7053 4.546C14.668 4.53667 14.6306 4.532 14.5933 4.532C13.8186 4.532 13.212 4.77 12.7733 5.246C12.3346 5.71267 12.1153 6.38 12.1153 7.248V11H11.1213ZM19.3849 11.07C18.6195 11.07 17.9475 10.9113 17.3689 10.594C16.7902 10.2673 16.3375 9.824 16.0109 9.264C15.6842 8.69467 15.5209 8.046 15.5209 7.318C15.5209 6.59 15.6749 5.946 15.9829 5.386C16.3002 4.826 16.7295 4.38733 17.2709 4.07C17.8215 3.74333 18.4375 3.58 19.1189 3.58C19.8095 3.58 20.4209 3.73867 20.9529 4.056C21.4942 4.364 21.9189 4.80267 22.2269 5.372C22.5349 5.932 22.6889 6.58067 22.6889 7.318C22.6889 7.36467 22.6842 7.416 22.6749 7.472C22.6749 7.51867 22.6749 7.57 22.6749 7.626H16.2769V6.884H22.1429L21.7509 7.178C21.7509 6.646 21.6342 6.17467 21.4009 5.764C21.1769 5.344 20.8689 5.01733 20.4769 4.784C20.0849 4.55067 19.6322 4.434 19.1189 4.434C18.6149 4.434 18.1622 4.55067 17.7609 4.784C17.3595 5.01733 17.0469 5.344 16.8229 5.764C16.5989 6.184 16.4869 6.66467 16.4869 7.206V7.36C16.4869 7.92 16.6082 8.41467 16.8509 8.844C17.1029 9.264 17.4482 9.59533 17.8869 9.838C18.3349 10.0713 18.8435 10.188 19.4129 10.188C19.8609 10.188 20.2762 10.1087 20.6589 9.95C21.0509 9.79133 21.3869 9.54867 21.6669 9.222L22.2269 9.866C21.9002 10.258 21.4895 10.5567 20.9949 10.762C20.5095 10.9673 19.9729 11.07 19.3849 11.07ZM28.8132 11V9.376L28.7712 9.11V6.394C28.7712 5.76867 28.5938 5.288 28.2392 4.952C27.8938 4.616 27.3758 4.448 26.6852 4.448C26.2092 4.448 25.7565 4.52733 25.3272 4.686C24.8978 4.84467 24.5338 5.05467 24.2352 5.316L23.7872 4.574C24.1605 4.25667 24.6085 4.014 25.1312 3.846C25.6538 3.66867 26.2045 3.58 26.7832 3.58C27.7352 3.58 28.4678 3.818 28.9812 4.294C29.5038 4.76067 29.7652 5.47467 29.7652 6.436V11H28.8132ZM26.2792 11.07C25.7285 11.07 25.2478 10.9813 24.8372 10.804C24.4358 10.6173 24.1278 10.3653 23.9132 10.048C23.6985 9.72133 23.5912 9.348 23.5912 8.928C23.5912 8.54533 23.6798 8.2 23.8572 7.892C24.0438 7.57467 24.3425 7.32267 24.7532 7.136C25.1732 6.94 25.7332 6.842 26.4332 6.842H28.9672V7.584H26.4612C25.7518 7.584 25.2572 7.71 24.9772 7.962C24.7065 8.214 24.5712 8.52667 24.5712 8.9C24.5712 9.32 24.7345 9.656 25.0612 9.908C25.3878 10.16 25.8452 10.286 26.4332 10.286C26.9932 10.286 27.4738 10.16 27.8752 9.908C28.2858 9.64667 28.5845 9.27333 28.7712 8.788L28.9952 9.474C28.8085 9.95933 28.4818 10.3467 28.0152 10.636C27.5578 10.9253 26.9792 11.07 26.2792 11.07ZM35.7394 11V1.2H39.4074C40.238 1.2 40.952 1.33533 41.5494 1.606C42.1467 1.86733 42.604 2.25 42.9214 2.754C43.248 3.24867 43.4114 3.85067 43.4114 4.56C43.4114 5.25067 43.248 5.848 42.9214 6.352C42.604 6.84667 42.1467 7.22933 41.5494 7.5C40.952 7.76133 40.238 7.892 39.4074 7.892H36.3134L36.7754 7.416V11H35.7394ZM42.4314 11L39.9114 7.444H41.0314L43.5654 11H42.4314ZM36.7754 7.5L36.3134 7.01H39.3794C40.3594 7.01 41.1014 6.79533 41.6054 6.366C42.1187 5.93667 42.3754 5.33467 42.3754 4.56C42.3754 3.776 42.1187 3.16933 41.6054 2.74C41.1014 2.31067 40.3594 2.096 39.3794 2.096H36.3134L36.7754 1.606V7.5ZM49.8844 11V9.376L49.8424 9.11V6.394C49.8424 5.76867 49.665 5.288 49.3104 4.952C48.965 4.616 48.447 4.448 47.7564 4.448C47.2804 4.448 46.8277 4.52733 46.3984 4.686C45.969 4.84467 45.605 5.05467 45.3064 5.316L44.8584 4.574C45.2317 4.25667 45.6797 4.014 46.2024 3.846C46.725 3.66867 47.2757 3.58 47.8544 3.58C48.8064 3.58 49.539 3.818 50.0524 4.294C50.575 4.76067 50.8364 5.47467 50.8364 6.436V11H49.8844ZM47.3504 11.07C46.7997 11.07 46.319 10.9813 45.9084 10.804C45.507 10.6173 45.199 10.3653 44.9844 10.048C44.7697 9.72133 44.6624 9.348 44.6624 8.928C44.6624 8.54533 44.751 8.2 44.9284 7.892C45.115 7.57467 45.4137 7.32267 45.8244 7.136C46.2444 6.94 46.8044 6.842 47.5044 6.842H50.0384V7.584H47.5324C46.823 7.584 46.3284 7.71 46.0484 7.962C45.7777 8.214 45.6424 8.52667 45.6424 8.9C45.6424 9.32 45.8057 9.656 46.1324 9.908C46.459 10.16 46.9164 10.286 47.5044 10.286C48.0644 10.286 48.545 10.16 48.9464 9.908C49.357 9.64667 49.6557 9.27333 49.8424 8.788L50.0664 9.474C49.8797 9.95933 49.553 10.3467 49.0864 10.636C48.629 10.9253 48.0504 11.07 47.3504 11.07ZM56.9883 3.58C57.5857 3.58 58.1083 3.69667 58.5563 3.93C59.0137 4.154 59.3683 4.49933 59.6203 4.966C59.8817 5.43267 60.0123 6.02067 60.0123 6.73V11H59.0183V6.828C59.0183 6.05333 58.8223 5.47 58.4303 5.078C58.0477 4.67667 57.5063 4.476 56.8063 4.476C56.2837 4.476 55.8263 4.58333 55.4343 4.798C55.0517 5.00333 54.753 5.30667 54.5383 5.708C54.333 6.1 54.2303 6.576 54.2303 7.136V11H53.2363V3.65H54.1883V5.666L54.0343 5.288C54.2677 4.756 54.641 4.34067 55.1543 4.042C55.6677 3.734 56.279 3.58 56.9883 3.58ZM65.5334 13.786C64.8614 13.786 64.2174 13.688 63.6014 13.492C62.9854 13.296 62.4861 13.016 62.1034 12.652L62.6074 11.896C62.9528 12.204 63.3774 12.4467 63.8814 12.624C64.3948 12.8107 64.9361 12.904 65.5054 12.904C66.4388 12.904 67.1248 12.6847 67.5634 12.246C68.0021 11.8167 68.2214 11.1447 68.2214 10.23V8.396L68.3614 7.136L68.2634 5.876V3.65H69.2154V10.104C69.2154 11.3733 68.9028 12.302 68.2774 12.89C67.6614 13.4873 66.7468 13.786 65.5334 13.786ZM65.3514 10.72C64.6514 10.72 64.0214 10.5707 63.4614 10.272C62.9014 9.964 62.4581 9.53933 62.1314 8.998C61.8141 8.45667 61.6554 7.836 61.6554 7.136C61.6554 6.436 61.8141 5.82 62.1314 5.288C62.4581 4.74667 62.9014 4.32667 63.4614 4.028C64.0214 3.72933 64.6514 3.58 65.3514 3.58C66.0048 3.58 66.5928 3.71533 67.1154 3.986C67.6381 4.25667 68.0534 4.658 68.3614 5.19C68.6694 5.722 68.8234 6.37067 68.8234 7.136C68.8234 7.90133 68.6694 8.55 68.3614 9.082C68.0534 9.614 67.6381 10.02 67.1154 10.3C66.5928 10.58 66.0048 10.72 65.3514 10.72ZM65.4494 9.838C65.9908 9.838 66.4714 9.726 66.8914 9.502C67.3114 9.26867 67.6428 8.95133 67.8854 8.55C68.1281 8.13933 68.2494 7.668 68.2494 7.136C68.2494 6.604 68.1281 6.13733 67.8854 5.736C67.6428 5.33467 67.3114 5.022 66.8914 4.798C66.4714 4.56467 65.9908 4.448 65.4494 4.448C64.9174 4.448 64.4368 4.56467 64.0074 4.798C63.5874 5.022 63.2561 5.33467 63.0134 5.736C62.7801 6.13733 62.6634 6.604 62.6634 7.136C62.6634 7.668 62.7801 8.13933 63.0134 8.55C63.2561 8.95133 63.5874 9.26867 64.0074 9.502C64.4368 9.726 64.9174 9.838 65.4494 9.838ZM74.8036 11.07C74.0382 11.07 73.3662 10.9113 72.7876 10.594C72.2089 10.2673 71.7562 9.824 71.4296 9.264C71.1029 8.69467 70.9396 8.046 70.9396 7.318C70.9396 6.59 71.0936 5.946 71.4016 5.386C71.7189 4.826 72.1482 4.38733 72.6896 4.07C73.2402 3.74333 73.8562 3.58 74.5376 3.58C75.2282 3.58 75.8396 3.73867 76.3716 4.056C76.9129 4.364 77.3376 4.80267 77.6456 5.372C77.9536 5.932 78.1076 6.58067 78.1076 7.318C78.1076 7.36467 78.1029 7.416 78.0936 7.472C78.0936 7.51867 78.0936 7.57 78.0936 7.626H71.6956V6.884H77.5616L77.1696 7.178C77.1696 6.646 77.0529 6.17467 76.8196 5.764C76.5956 5.344 76.2876 5.01733 75.8956 4.784C75.5036 4.55067 75.0509 4.434 74.5376 4.434C74.0336 4.434 73.5809 4.55067 73.1796 4.784C72.7782 5.01733 72.4656 5.344 72.2416 5.764C72.0176 6.184 71.9056 6.66467 71.9056 7.206V7.36C71.9056 7.92 72.0269 8.41467 72.2696 8.844C72.5216 9.264 72.8669 9.59533 73.3056 9.838C73.7536 10.0713 74.2622 10.188 74.8316 10.188C75.2796 10.188 75.6949 10.1087 76.0776 9.95C76.4696 9.79133 76.8056 9.54867 77.0856 9.222L77.6456 9.866C77.3189 10.258 76.9082 10.5567 76.4136 10.762C75.9282 10.9673 75.3916 11.07 74.8036 11.07ZM84.8892 13.716C84.3758 12.8667 83.9745 11.8867 83.6852 10.776C83.4052 9.656 83.2652 8.452 83.2652 7.164C83.2652 5.876 83.4052 4.672 83.6852 3.552C83.9745 2.42267 84.3758 1.44267 84.8892 0.611999H85.8412C85.2905 1.57333 84.8845 2.59533 84.6232 3.678C84.3712 4.75133 84.2452 5.91333 84.2452 7.164C84.2452 8.41467 84.3712 9.58133 84.6232 10.664C84.8845 11.7373 85.2905 12.7547 85.8412 13.716H84.8892ZM124.233 13.716H123.281C123.841 12.7547 124.247 11.7373 124.499 10.664C124.76 9.58133 124.891 8.41467 124.891 7.164C124.891 5.91333 124.76 4.75133 124.499 3.678C124.247 2.59533 123.841 1.57333 123.281 0.611999H124.233C124.765 1.44267 125.171 2.42267 125.451 3.552C125.731 4.672 125.871 5.876 125.871 7.164C125.871 8.452 125.731 9.656 125.451 10.776C125.171 11.8867 124.765 12.8667 124.233 13.716Z" fill="#140E25"/>
<path d="M93.779 11.084C93.051 11.084 92.351 10.9673 91.679 10.734C91.0163 10.4913 90.503 10.1833 90.139 9.81L90.545 9.012C90.8903 9.348 91.3523 9.63267 91.931 9.866C92.519 10.09 93.135 10.202 93.779 10.202C94.395 10.202 94.8943 10.1273 95.277 9.978C95.669 9.81933 95.9536 9.60933 96.131 9.348C96.3176 9.08667 96.411 8.79733 96.411 8.48C96.411 8.09733 96.299 7.78933 96.075 7.556C95.8603 7.32267 95.5756 7.14067 95.221 7.01C94.8663 6.87 94.4743 6.74867 94.045 6.646C93.6156 6.54333 93.1863 6.436 92.757 6.324C92.3276 6.20267 91.931 6.044 91.567 5.848C91.2123 5.652 90.923 5.39533 90.699 5.078C90.4843 4.75133 90.377 4.32667 90.377 3.804C90.377 3.31867 90.503 2.87533 90.755 2.474C91.0163 2.06333 91.413 1.73667 91.945 1.494C92.477 1.242 93.1583 1.116 93.989 1.116C94.5396 1.116 95.0856 1.19533 95.627 1.354C96.1683 1.50333 96.635 1.71333 97.027 1.984L96.677 2.81C96.257 2.53 95.809 2.32467 95.333 2.194C94.8663 2.06333 94.4136 1.998 93.975 1.998C93.387 1.998 92.9016 2.07733 92.519 2.236C92.1363 2.39467 91.8516 2.60933 91.665 2.88C91.4876 3.14133 91.399 3.44 91.399 3.776C91.399 4.15867 91.5063 4.46667 91.721 4.7C91.945 4.93333 92.2343 5.11533 92.589 5.246C92.953 5.37667 93.3496 5.49333 93.779 5.596C94.2083 5.69867 94.633 5.81067 95.053 5.932C95.4823 6.05333 95.8743 6.212 96.229 6.408C96.593 6.59467 96.8823 6.84667 97.097 7.164C97.321 7.48133 97.433 7.89667 97.433 8.41C97.433 8.886 97.3023 9.32933 97.041 9.74C96.7796 10.1413 96.3783 10.468 95.837 10.72C95.305 10.9627 94.619 11.084 93.779 11.084ZM102.106 11.07C101.406 11.07 100.776 10.9113 100.216 10.594C99.6658 10.2767 99.2318 9.838 98.9144 9.278C98.5971 8.718 98.4384 8.06467 98.4384 7.318C98.4384 6.58067 98.5971 5.932 98.9144 5.372C99.2318 4.80267 99.6658 4.364 100.216 4.056C100.776 3.73867 101.406 3.58 102.106 3.58C102.76 3.58 103.338 3.72467 103.842 4.014C104.356 4.30333 104.762 4.728 105.06 5.288C105.359 5.83867 105.508 6.51533 105.508 7.318C105.508 8.12067 105.354 8.802 105.046 9.362C104.748 9.91267 104.342 10.3373 103.828 10.636C103.324 10.9253 102.75 11.07 102.106 11.07ZM102.176 10.188C102.699 10.188 103.166 10.0713 103.576 9.838C103.996 9.59533 104.323 9.25933 104.556 8.83C104.799 8.39133 104.92 7.88733 104.92 7.318C104.92 6.74867 104.799 6.24933 104.556 5.82C104.323 5.39067 103.996 5.05467 103.576 4.812C103.166 4.56933 102.699 4.448 102.176 4.448C101.663 4.448 101.201 4.56933 100.79 4.812C100.38 5.05467 100.053 5.39067 99.8104 5.82C99.5678 6.24933 99.4464 6.74867 99.4464 7.318C99.4464 7.88733 99.5678 8.39133 99.8104 8.83C100.053 9.25933 100.38 9.59533 100.79 9.838C101.201 10.0713 101.663 10.188 102.176 10.188ZM104.906 13.716V8.816L105.046 7.332L104.948 5.862V3.65H105.9V13.716H104.906ZM108.467 11.07C108.262 11.07 108.084 10.9953 107.935 10.846C107.795 10.6967 107.725 10.5147 107.725 10.3C107.725 10.076 107.795 9.894 107.935 9.754C108.084 9.614 108.262 9.544 108.467 9.544C108.672 9.544 108.845 9.614 108.985 9.754C109.134 9.894 109.209 10.076 109.209 10.3C109.209 10.5147 109.134 10.6967 108.985 10.846C108.845 10.9953 108.672 11.07 108.467 11.07ZM111.246 11V1.2H112.1L116.58 8.844H116.132L120.57 1.2H121.424V11H120.43V2.754H120.668L116.58 9.754H116.09L111.974 2.754H112.24V11H111.246Z" fill="#140E25" fill-opacity="0.6"/>
</svg>
