<svg width="125" height="30" viewBox="0 0 125 30" fill="none" xmlns="http://www.w3.org/2000/svg">
<g clip-path="url(#clip0_1_3520)">
<path d="M15 30C23.2843 30 30 23.2843 30 15C30 6.71573 23.2843 0 15 0C6.71573 0 0 6.71573 0 15C0 23.2843 6.71573 30 15 30Z" fill="#3C286E"/>
<path d="M14.9999 23.7128C14.8245 23.7141 14.6535 23.6584 14.5126 23.554C14.232 23.351 7.64941 18.5294 7.64941 13.9368C7.64941 10.112 10.9462 6.99976 14.9999 6.99976C19.0535 6.99976 22.3504 10.112 22.3504 13.9368C22.3504 18.5294 15.7678 23.351 15.4872 23.554C15.3463 23.6584 15.1753 23.7141 14.9999 23.7128ZM14.9999 8.51342C11.8323 8.51342 9.25168 10.9464 9.25168 13.9368C9.25168 16.8681 13.0284 20.4381 14.9962 21.9813C15.9512 21.226 16.853 20.4057 17.6949 19.5262C19.6922 17.4219 20.7481 15.4873 20.7481 13.9368C20.7481 10.9464 18.1675 8.51342 14.9999 8.51342Z" fill="#00D2AA"/>
<path d="M14.9999 11.4042C13.2429 11.3842 11.4994 11.0927 9.83135 10.5403C9.0445 10.2625 8.28756 9.90628 7.57194 9.47707C7.4847 9.42646 7.40875 9.3585 7.34878 9.27741C7.28881 9.19631 7.2461 9.10379 7.22327 9.00554C7.20044 8.9073 7.19797 8.80542 7.21603 8.70619C7.23409 8.60696 7.27229 8.51248 7.32827 8.42858C7.44986 8.25762 7.63163 8.139 7.83708 8.09654C8.04253 8.05408 8.25643 8.09093 8.43583 8.19969C9.05784 8.57255 9.71586 8.88177 10.3999 9.12265C13.3811 10.1465 16.6188 10.1465 19.6 9.12265C20.284 8.88177 20.942 8.57255 21.5641 8.19969C21.7435 8.09093 21.9574 8.05408 22.1628 8.09654C22.3683 8.139 22.55 8.25762 22.6716 8.42858C22.7276 8.51248 22.7658 8.60696 22.7839 8.70619C22.8019 8.80542 22.7995 8.9073 22.7766 9.00554C22.7538 9.10379 22.7111 9.19631 22.6511 9.27741C22.5911 9.3585 22.5152 9.42646 22.428 9.47707C21.7123 9.90628 20.9554 10.2625 20.1685 10.5403C18.5004 11.0927 16.757 11.3842 14.9999 11.4042Z" fill="#00D2AA"/>
<path d="M16.4218 14.6382C16.4218 15.3766 15.0005 16.6651 15.0005 16.6651C15.0005 16.6651 13.5791 15.3803 13.5791 14.6382C13.605 14.279 13.766 13.9428 14.0297 13.6975C14.2934 13.4521 14.6403 13.3157 15.0005 13.3157C15.3607 13.3157 15.7075 13.4521 15.9712 13.6975C16.2349 13.9428 16.3959 14.279 16.4218 14.6382Z" fill="#00D2AA"/>
<path d="M11.6328 14.3392C12.0508 14.3392 12.3896 14.0185 12.3896 13.623C12.3896 13.2274 12.0508 12.9067 11.6328 12.9067C11.2148 12.9067 10.876 13.2274 10.876 13.623C10.876 14.0185 11.2148 14.3392 11.6328 14.3392Z" fill="#00D2AA"/>
<path d="M18.3711 14.3392C18.7891 14.3392 19.1279 14.0185 19.1279 13.623C19.1279 13.2274 18.7891 12.9067 18.3711 12.9067C17.9531 12.9067 17.6143 13.2274 17.6143 13.623C17.6143 14.0185 17.9531 14.3392 18.3711 14.3392Z" fill="#00D2AA"/>
<path d="M44.1509 17.5916V22.1584H41.7438V17.6285L36.6602 9.21851H39.2445L43.036 15.5279L46.8497 9.21851H49.2198L44.1509 17.5916Z" fill="#3C286E"/>
<path d="M52.7163 21.483C51.6785 20.9346 50.8133 20.109 50.2169 19.0981C49.6242 18.0582 49.3125 16.8819 49.3125 15.6849C49.3125 14.488 49.6242 13.3117 50.2169 12.2718C50.8144 11.2617 51.6793 10.4364 52.7163 9.88688C53.8214 9.32146 55.045 9.02661 56.2863 9.02661C57.5276 9.02661 58.7512 9.32146 59.8563 9.88688C60.8903 10.4358 61.7536 11.2583 62.352 12.2644C62.9449 13.3076 63.2566 14.4869 63.2566 15.6868C63.2566 16.8867 62.9449 18.066 62.352 19.1091C61.7533 20.1142 60.89 20.9353 59.8563 21.483C58.7512 22.0484 57.5276 22.3433 56.2863 22.3433C55.045 22.3433 53.8214 22.0484 52.7163 21.483ZM58.6232 19.6371C59.3067 19.2562 59.8705 18.6924 60.2513 18.009C60.6391 17.2904 60.8421 16.4867 60.8421 15.6702C60.8421 14.8537 60.6391 14.05 60.2513 13.3314C59.8705 12.6479 59.3067 12.0841 58.6232 11.7033C57.9058 11.3203 57.1051 11.12 56.2918 11.12C55.4786 11.12 54.6778 11.3203 53.9604 11.7033C53.2769 12.0841 52.7131 12.6479 52.3323 13.3314C51.9446 14.05 51.7416 14.8537 51.7416 15.6702C51.7416 16.4867 51.9446 17.2904 52.3323 18.009C52.7131 18.6924 53.2769 19.2562 53.9604 19.6371C54.6778 20.02 55.4786 20.2204 56.2918 20.2204C57.1051 20.2204 57.9058 20.02 58.6232 19.6371Z" fill="#3C286E"/>
<path d="M68.2878 21.483C67.2512 20.9344 66.3872 20.1087 65.7921 19.0981C65.1969 18.059 64.8838 16.8824 64.8838 15.6849C64.8838 14.4875 65.1969 13.3109 65.7921 12.2718C66.3881 11.2619 67.2518 10.4365 68.2878 9.88688C69.3929 9.32146 70.6165 9.02661 71.8578 9.02661C73.0992 9.02661 74.3227 9.32146 75.4278 9.88688C76.4628 10.4358 77.3273 11.2581 77.9272 12.2644C78.5201 13.3076 78.8319 14.4869 78.8319 15.6868C78.8319 16.8867 78.5201 18.066 77.9272 19.1091C77.3273 20.1144 76.4627 20.9356 75.4278 21.483C74.3227 22.0484 73.0992 22.3433 71.8578 22.3433C70.6165 22.3433 69.3929 22.0484 68.2878 21.483ZM74.1948 19.6371C74.8772 19.2562 75.4398 18.6923 75.8192 18.009C76.2092 17.2911 76.4135 16.4871 76.4135 15.6702C76.4135 14.8532 76.2092 14.0492 75.8192 13.3314C75.4398 12.648 74.8772 12.0842 74.1948 11.7033C73.4773 11.3203 72.6766 11.12 71.8633 11.12C71.0501 11.12 70.2494 11.3203 69.5319 11.7033C68.8485 12.0841 68.2847 12.6479 67.9038 13.3314C67.5161 14.05 67.3131 14.8537 67.3131 15.6702C67.3131 16.4867 67.5161 17.2904 67.9038 18.009C68.2847 18.6924 68.8485 19.2562 69.5319 19.6371C70.2494 20.02 71.0501 20.2204 71.8633 20.2204C72.6766 20.2204 73.4773 20.02 74.1948 19.6371Z" fill="#3C286E"/>
<path d="M92.8903 9.21851V22.1658H90.4759V16.6022H83.7899V22.14H81.3828V9.21851H83.7899V14.5643H90.4759V9.21851H92.8903Z" fill="#00D2AA"/>
<path d="M98.8454 21.483C97.8088 20.9344 96.9448 20.1087 96.3497 19.0981C95.7545 18.059 95.4414 16.8824 95.4414 15.6849C95.4414 14.4875 95.7545 13.3109 96.3497 12.2718C96.9457 11.2619 97.8095 10.4365 98.8454 9.88688C99.9505 9.32146 101.174 9.02661 102.415 9.02661C103.657 9.02661 104.88 9.32146 105.985 9.88688C107.02 10.4358 107.885 11.2581 108.485 12.2644C109.078 13.3076 109.389 14.4869 109.389 15.6868C109.389 16.8867 109.078 18.066 108.485 19.1091C107.885 20.1144 107.02 20.9356 105.985 21.483C104.88 22.0484 103.657 22.3433 102.415 22.3433C101.174 22.3433 99.9505 22.0484 98.8454 21.483ZM104.752 19.6371C105.437 19.2574 106.001 18.6933 106.38 18.009C106.77 17.2911 106.975 16.4871 106.975 15.6702C106.975 14.8532 106.77 14.0492 106.38 13.3314C106.001 12.6471 105.437 12.083 104.752 11.7033C104.036 11.3203 103.235 11.12 102.423 11.12C101.61 11.12 100.81 11.3203 100.093 11.7033C99.4098 12.0841 98.846 12.6479 98.4651 13.3314C98.0774 14.05 97.8744 14.8537 97.8744 15.6702C97.8744 16.4867 98.0774 17.2904 98.4651 18.009C98.846 18.6924 99.4098 19.2562 100.093 19.6371C100.81 20.02 101.61 20.2204 102.423 20.2204C103.235 20.2204 104.036 20.02 104.752 19.6371Z" fill="#00D2AA"/>
<path d="M114.421 21.483C113.384 20.9335 112.519 20.1081 111.922 19.0981C111.329 18.0582 111.018 16.8819 111.018 15.6849C111.018 14.488 111.329 13.3117 111.922 12.2718C112.52 11.2626 113.385 10.4375 114.421 9.88688C115.526 9.32146 116.75 9.02661 117.991 9.02661C119.233 9.02661 120.456 9.32146 121.561 9.88688C122.596 10.4349 123.46 11.2576 124.057 12.2644C124.652 13.3069 124.965 14.4865 124.965 15.6868C124.965 16.8871 124.652 18.0667 124.057 19.1091C123.459 20.115 122.596 20.9364 121.561 21.483C120.456 22.0484 119.233 22.3433 117.991 22.3433C116.75 22.3433 115.526 22.0484 114.421 21.483ZM120.328 19.6371C121.012 19.2562 121.576 18.6924 121.956 18.009C122.344 17.2904 122.547 16.4867 122.547 15.6702C122.547 14.8537 122.344 14.05 121.956 13.3314C121.576 12.6479 121.012 12.0841 120.328 11.7033C119.612 11.3203 118.811 11.12 117.999 11.12C117.186 11.12 116.386 11.3203 115.669 11.7033C114.984 12.082 114.42 12.6463 114.041 13.3314C113.651 14.0492 113.447 14.8532 113.447 15.6702C113.447 16.4871 113.651 17.2911 114.041 18.009C114.42 18.694 114.984 19.2583 115.669 19.6371C116.386 20.02 117.186 20.2204 117.999 20.2204C118.811 20.2204 119.612 20.02 120.328 19.6371Z" fill="#00D2AA"/>
<path d="M124.442 7.49805L123.212 6.97012V5.19434C123.212 4.9613 123.12 4.73781 122.955 4.57303C122.79 4.40825 122.566 4.31567 122.333 4.31567C122.1 4.31567 121.877 4.40825 121.712 4.57303C121.547 4.73781 121.455 4.9613 121.455 5.19434V6.21698L118.346 4.88422C118.235 4.8368 118.115 4.81235 117.994 4.81235C117.873 4.81235 117.753 4.8368 117.641 4.88422L111.55 7.49805C111.444 7.5415 111.349 7.60556 111.269 7.68645C111.189 7.76734 111.126 7.86342 111.084 7.96904C111.041 8.07466 111.021 8.18768 111.023 8.30144C111.025 8.4152 111.049 8.52741 111.095 8.63145C111.192 8.84305 111.367 9.00845 111.584 9.09201C111.801 9.17557 112.041 9.17059 112.255 9.07816L117.992 6.63416L121.986 8.34718L123.733 9.08555C123.843 9.13331 123.963 9.15841 124.083 9.15938C124.254 9.16011 124.421 9.11131 124.565 9.01892C124.708 8.92653 124.822 8.7945 124.892 8.63883C124.939 8.53456 124.964 8.42197 124.967 8.3077C124.969 8.19344 124.949 8.0798 124.907 7.97349C124.865 7.86718 124.802 7.77034 124.722 7.68869C124.642 7.60704 124.547 7.54222 124.442 7.49805Z" fill="#00D2AA"/>
</g>
<defs>
<clipPath id="clip0_1_3520">
<rect width="124.966" height="30" fill="white"/>
</clipPath>
</defs>
</svg>
